<svg fill="#869ab8" xmlns="http://www.w3.org/2000/svg"  viewBox="0 0 50 50" width="50px" height="50px"><path d="M 14.554688 1.8515625 A 1.0001 1.0001 0 0 0 13.751953 3.3652344 L 24.261719 20.875 A 1.0001 1.0001 0 0 0 24.878906 21.330078 L 29.287109 22.427734 L 28.189453 26.828125 A 1.0001 1.0001 0 0 0 28.302734 27.583984 L 38.8125 45.083984 A 1.0001 1.0001 0 0 0 40.640625 44.8125 L 48.970703 11.421875 A 1.0001 1.0001 0 0 0 48.242188 10.208984 L 14.851562 1.8789062 A 1.0001 1.0001 0 0 0 14.554688 1.8515625 z M 16.708984 4.4042969 L 46.787109 11.908203 L 39.283203 41.984375 L 30.230469 26.910156 L 31.470703 21.941406 A 1.0001 1.0001 0 0 0 30.742188 20.730469 L 25.763672 19.490234 L 16.708984 4.4042969 z M 10.359375 4.4296875 A 1.0001 1.0001 0 0 0 9.359375 5.1875 L 1.0292969 38.578125 A 1.0001 1.0001 0 0 0 1.7578125 39.791016 L 35.148438 48.121094 A 1.0001 1.0001 0 0 0 36.248047 46.634766 L 25.738281 29.125 A 1.0001 1.0001 0 0 0 25.121094 28.669922 L 20.712891 27.572266 L 21.810547 23.171875 A 1.0001 1.0001 0 0 0 21.697266 22.416016 L 11.1875 4.9160156 A 1.0001 1.0001 0 0 0 10.359375 4.4296875 z M 10.716797 8.015625 L 19.769531 23.089844 L 18.529297 28.058594 A 1.0001 1.0001 0 0 0 19.257812 29.269531 L 24.238281 30.511719 L 33.291016 45.595703 L 3.2128906 38.091797 L 10.716797 8.015625 z"/></svg>